<?xml version="1.0" standalone="no"?>
<!DOCTYPE svg PUBLIC "-//W3C//DTD SVG 20010904//EN"
 "http://www.w3.org/TR/2001/REC-SVG-20010904/DTD/svg10.dtd">
<svg version="1.0" xmlns="http://www.w3.org/2000/svg"
 width="512.000000pt" height="512.000000pt" viewBox="0 0 512.000000 512.000000"
 preserveAspectRatio="xMidYMid meet">
<metadata>
Created by potrace 1.11, written by Peter Selinger 2001-2013
</metadata>
<g transform="translate(0.000000,512.000000) scale(0.100000,-0.100000)"
fill="#000000" stroke="none">
<path d="M2707 5077 c4 -7 0 -8 -11 -4 -13 5 -17 3 -13 -6 3 -8 2 -19 -3 -26
-5 -10 -9 -9 -13 4 -5 11 -3 14 6 9 7 -4 9 -3 4 2 -5 5 -12 9 -15 9 -4 0 -13
4 -20 8 -7 5 -12 5 -11 0 4 -21 -3 -22 -37 -8 -34 14 -36 14 -23 -2 12 -15 12
-16 -5 -10 -15 6 -17 5 -7 -7 9 -11 9 -15 -1 -19 -10 -4 -10 -8 2 -16 13 -10
13 -11 0 -11 -12 0 -12 -2 -1 -9 10 -7 11 -13 2 -30 -7 -12 -10 -25 -7 -30 3
-4 -1 -8 -9 -8 -12 0 -12 5 1 28 13 25 12 28 -1 23 -8 -3 -12 -10 -9 -15 3 -5
-2 -12 -11 -15 -9 -4 -14 -13 -11 -20 7 -18 1 -18 -18 2 -15 14 -16 14 -16 -2
0 -14 -3 -14 -15 -4 -13 11 -14 10 -10 -2 3 -8 -4 -23 -17 -34 l-23 -19 19 23
c11 12 14 22 9 22 -6 0 -14 -7 -17 -16 -3 -8 -11 -12 -17 -8 -8 4 -7 0 1 -16
11 -20 10 -21 -11 -9 l-23 12 18 -29 19 -29 -21 19 c-21 18 -21 18 -40 -13
-10 -17 -21 -28 -25 -25 -3 3 -4 -6 -3 -20 3 -20 0 -24 -9 -16 -10 8 -15 8
-21 -1 -5 -8 -3 -9 6 -4 8 5 11 3 8 -6 -3 -8 -11 -13 -17 -11 -7 1 -10 -2 -7
-7 4 -5 2 -13 -4 -16 -8 -5 -7 -12 2 -23 7 -9 8 -13 2 -9 -15 8 -25 -27 -13
-42 6 -8 5 -8 -3 -1 -8 7 -19 3 -35 -12 -13 -12 -23 -18 -23 -14 0 4 10 17 23
29 13 12 16 16 7 9 -9 -6 -20 -9 -23 -5 -4 3 -7 1 -7 -4 0 -13 -18 -12 -39 1
-10 7 -12 6 -6 -4 6 -10 4 -12 -9 -7 -11 4 -15 3 -11 -4 4 -6 14 -8 22 -5 8 3
11 1 8 -5 -4 -5 -12 -8 -18 -6 -7 2 -21 -3 -31 -12 -11 -9 -16 -10 -12 -3 5 8
0 12 -14 12 -14 0 -19 -4 -14 -12 6 -10 5 -10 -7 -1 -20 17 -59 12 -59 -7 -1
-8 -7 -1 -15 15 -7 17 -14 24 -14 17 -1 -7 -5 -11 -10 -7 -5 3 -13 0 -17 -6
-5 -8 -3 -9 7 -4 12 7 12 6 0 -6 -10 -11 -15 -11 -18 -1 -3 6 -9 12 -14 12 -6
0 -8 -4 -5 -8 2 -4 -4 -8 -15 -8 -10 0 -19 5 -19 11 0 5 -5 3 -10 -5 -9 -13
-10 -13 -10 0 0 13 -1 13 -10 0 -5 -8 -10 -10 -10 -4 0 13 -31 15 -46 3 -7 -6
-16 -4 -23 4 -6 8 -21 13 -33 12 -13 -1 -29 5 -36 14 -8 9 -11 11 -8 5 8 -17
-39 -35 -53 -21 -9 9 -11 7 -6 -8 5 -14 2 -13 -9 5 -12 20 -15 22 -16 7 0 -10
-4 -15 -10 -12 -5 3 -19 1 -30 -5 -13 -7 -20 -7 -20 0 0 5 5 10 11 10 5 0 7 5
3 11 -5 8 -10 7 -16 -4 -5 -10 -15 -14 -25 -10 -12 5 -14 3 -8 -8 7 -11 5 -11
-10 1 -11 9 -16 10 -11 3 4 -7 2 -13 -4 -13 -6 0 -13 7 -16 15 -5 11 -9 12
-19 2 -7 -7 -11 -15 -9 -18 4 -8 -46 -3 -53 5 -4 3 -12 1 -19 -5 -8 -7 -14 -6
-20 2 -5 8 -3 9 6 4 9 -5 11 -4 6 4 -4 6 -12 9 -17 5 -5 -3 -7 -10 -4 -15 4
-5 -1 -9 -10 -9 -10 0 -13 -5 -9 -12 5 -7 3 -8 -5 -3 -9 5 -10 10 -2 18 6 6
11 16 11 21 0 6 -4 5 -8 -1 -12 -20 -74 -22 -95 -4 -15 13 -18 13 -15 1 2 -8
-3 -15 -9 -16 -7 -1 -18 -2 -24 -3 -5 0 -7 -7 -3 -13 4 -7 -3 -4 -15 7 -12 11
-22 15 -21 10 6 -30 -1 -35 -22 -15 -20 18 -23 19 -40 3 -10 -9 -18 -12 -18
-8 0 4 -9 0 -19 -9 -18 -17 -20 -17 -30 1 -8 14 -10 14 -11 3 0 -13 -1 -13
-10 0 -5 8 -10 10 -10 4 0 -7 -7 -15 -16 -18 -14 -5 -15 -4 -4 9 11 13 8 13
-25 -1 -20 -8 -34 -11 -32 -6 3 4 -12 7 -34 6 -21 -1 -42 2 -45 7 -7 12 -24 2
-24 -14 0 -8 3 -8 9 1 7 11 9 11 14 0 3 -10 -3 -14 -18 -14 -13 0 -21 4 -18 9
3 5 0 8 -8 5 -8 -3 -14 -10 -14 -16 0 -5 -3 -13 -7 -17 -3 -4 -5 5 -4 19 2 15
-1 29 -7 33 -6 3 -7 1 -4 -4 4 -6 -1 -20 -11 -31 -17 -19 -19 -19 -30 -4 -7 9
-10 12 -7 6 7 -16 -15 -31 -43 -28 -19 1 -21 -2 -16 -20 6 -19 5 -20 -11 -6
-11 9 -16 10 -11 3 4 -8 2 -13 -5 -13 -8 0 -7 -5 2 -17 13 -15 12 -15 -7 -5
-25 13 -43 -1 -39 -29 2 -10 -4 -16 -12 -15 -9 0 -18 -5 -21 -13 -3 -9 0 -11
8 -6 9 5 11 4 6 -4 -5 -8 -12 -9 -19 -2 -8 6 -17 4 -27 -7 -13 -14 -12 -15 4
-9 16 6 17 5 7 -7 -7 -8 -22 -13 -34 -11 -22 4 -22 4 1 -13 22 -17 22 -18 2
-20 -50 -4 -49 -4 -38 -26 11 -20 10 -20 -7 -6 -10 8 -16 10 -12 4 4 -7 0 -17
-8 -24 -8 -7 -15 -17 -15 -23 0 -6 7 -2 16 9 15 18 15 18 5 -2 -6 -12 -7 -25
-3 -29 4 -5 2 -5 -5 -1 -6 3 -14 2 -18 -4 -4 -6 -12 -7 -18 -3 -7 4 -6 0 2
-10 14 -18 26 -23 17 -8 -4 5 4 7 16 3 21 -5 21 -6 2 -12 -10 -4 -22 -6 -25
-4 -10 6 -20 -24 -10 -30 10 -6 7 -33 -7 -66 l-10 -25 -11 25 -12 25 5 -24 c3
-14 0 -32 -7 -40 -9 -11 -9 -13 0 -8 6 4 14 3 18 -3 3 -5 2 -10 -3 -10 -6 0
-13 -7 -16 -16 -6 -15 -4 -15 10 -3 16 13 16 12 4 -11 -20 -36 -20 -92 0 -85
10 3 9 1 -3 -9 -16 -13 -16 -14 -1 -20 15 -6 15 -8 1 -24 -14 -15 -14 -18 0
-31 14 -13 14 -16 -3 -28 -10 -7 -12 -13 -5 -13 7 0 9 -5 4 -12 -11 -19 -12
-38 -2 -38 5 0 9 -5 9 -11 0 -5 -6 -7 -13 -3 -9 6 -9 5 0 -7 16 -20 17 -31 1
-40 -7 -5 -8 -9 -2 -9 6 0 10 -10 9 -22 -1 -13 3 -29 9 -37 9 -12 8 -13 -3 -6
-11 6 -13 4 -8 -8 3 -10 2 -17 -3 -17 -6 0 -10 -5 -10 -11 0 -5 5 -7 12 -3 7
5 8 3 3 -6 -14 -23 -12 -61 2 -56 7 3 12 2 12 -2 -1 -4 0 -9 1 -12 9 -23 6
-38 -6 -33 -10 3 -12 0 -8 -10 3 -8 1 -18 -5 -22 -6 -3 -11 -11 -11 -18 0 -6
7 -2 16 9 13 16 15 16 10 2 -3 -10 -1 -18 5 -18 6 0 7 -5 4 -10 -4 -6 -11 -7
-17 -4 -6 4 -6 -1 1 -14 6 -12 19 -26 29 -31 15 -9 14 -10 -5 -8 -12 0 -19 5
-16 11 3 5 1 6 -6 2 -6 -4 -8 -12 -5 -18 4 -6 0 -14 -7 -19 -9 -6 -10 -9 -2
-9 6 0 15 5 18 11 5 6 12 4 20 -8 8 -11 10 -22 4 -29 -10 -12 -7 -73 4 -91 4
-6 3 -14 -3 -18 -5 -3 -10 -20 -10 -36 0 -17 4 -28 9 -25 11 7 6 -36 -8 -62
-9 -17 -8 -23 6 -31 16 -9 16 -10 2 -11 -9 0 -20 -7 -23 -16 -5 -13 -4 -14 7
-6 14 12 27 7 27 -10 0 -5 -4 -6 -10 -3 -14 9 -12 -8 3 -24 9 -11 9 -13 0 -7
-7 4 -13 2 -13 -3 0 -6 5 -11 10 -11 6 0 10 -5 10 -11 0 -5 -4 -8 -8 -5 -4 2
-8 -4 -8 -15 0 -10 4 -19 9 -19 4 0 5 -5 2 -10 -4 -6 -11 -8 -16 -5 -5 3 -6
-1 -3 -10 5 -13 9 -13 23 -3 14 11 14 11 4 -3 -7 -9 -9 -20 -5 -24 4 -5 1 -5
-7 0 -9 5 -12 3 -9 -6 3 -8 12 -13 19 -11 8 1 3 -7 -10 -18 -22 -19 -22 -20
-3 -20 24 0 37 -16 22 -25 -6 -4 -8 -11 -5 -16 3 -5 0 -6 -7 -4 -10 4 -14 -2
-14 -19 0 -14 4 -22 8 -20 4 3 8 -4 8 -15 0 -12 6 -21 13 -21 8 0 7 -4 -3 -10
-8 -5 -10 -10 -5 -10 6 0 2 -5 -9 -11 -15 -9 -16 -13 -5 -20 11 -7 12 -12 2
-28 -8 -13 -9 -22 -3 -26 6 -3 10 -11 10 -16 0 -6 -5 -7 -12 -3 -7 4 -8 3 -4
-4 4 -6 13 -9 21 -6 15 6 15 -20 0 -33 -4 -4 -5 -2 -1 5 10 18 1 15 -15 -5
-10 -11 -10 -14 -2 -9 17 9 17 -6 1 -24 -7 -8 -3 -6 9 3 16 14 23 15 29 6 4
-8 3 -10 -4 -5 -15 9 -16 -6 -2 -20 7 -7 6 -11 -4 -11 -8 0 -12 5 -9 10 3 6 1
7 -5 3 -16 -10 -15 -26 2 -26 8 0 13 -8 12 -17 -2 -10 4 -24 13 -31 10 -8 2
-7 -19 3 l-35 16 22 -20 c26 -22 30 -36 9 -28 -11 4 -13 1 -9 -10 4 -10 2 -14
-4 -10 -15 9 -10 -20 5 -35 9 -9 12 -9 12 0 0 7 -5 12 -12 12 -8 0 -7 6 4 16
20 20 45 9 27 -12 -9 -11 -9 -17 0 -28 9 -11 9 -16 1 -21 -7 -4 -10 -16 -7
-26 3 -11 1 -17 -4 -13 -5 3 -9 0 -9 -6 0 -6 -5 -8 -12 -4 -6 4 -8 3 -4 -4 3
-6 15 -9 25 -7 10 2 18 -3 18 -10 0 -8 -5 -11 -10 -8 -6 4 -8 0 -4 -10 4 -11
2 -14 -9 -10 -10 4 -12 0 -8 -10 3 -9 13 -14 22 -10 10 3 13 2 7 -4 -6 -4 -12
-26 -14 -48 -2 -22 -8 -44 -14 -48 -7 -5 -4 -6 8 -3 11 3 27 1 35 -5 13 -9 13
-10 0 -8 -27 3 -40 -1 -40 -12 0 -5 4 -7 10 -4 5 3 18 1 27 -5 17 -11 17 -11
1 -6 -27 8 -22 -1 10 -18 15 -8 21 -15 13 -16 -8 0 -11 -3 -8 -7 4 -3 3 -11
-3 -17 -10 -13 -5 -23 30 -51 23 -18 23 -17 -3 11 -19 21 -23 31 -13 31 8 0
14 -3 13 -6 -4 -11 40 -60 47 -53 4 3 4 -1 0 -11 -5 -14 -9 -15 -21 -6 -11 9
-17 9 -26 -1 -10 -10 -9 -12 5 -7 10 3 20 2 23 -3 4 -6 1 -10 -6 -10 -7 0 -10
-3 -6 -6 3 -3 19 4 36 17 17 12 34 20 38 16 3 -4 0 -7 -8 -7 -12 0 -11 -2 1
-11 13 -9 13 -10 -2 -6 -19 7 -52 -26 -45 -45 3 -8 6 -5 6 6 1 11 4 17 7 13 3
-3 22 3 41 14 19 11 32 16 29 11 -3 -5 1 -18 9 -28 15 -19 15 -18 9 1 -4 15
-1 13 10 -5 10 -16 16 -19 16 -10 0 12 3 11 11 -3 6 -9 15 -14 21 -11 7 4 8 2
4 -4 -7 -12 5 -16 31 -13 7 1 13 -2 13 -8 0 -10 -12 -9 -47 3 -13 4 -23 12
-23 18 0 6 -3 8 -6 5 -4 -3 -16 -1 -28 5 -11 7 -24 11 -28 10 -4 -1 -5 6 -1
16 5 14 3 15 -7 5 -10 -10 -11 -15 -1 -27 8 -10 9 -16 1 -21 -5 -3 -10 -12 -9
-18 0 -9 2 -8 6 1 2 6 10 9 15 6 6 -4 8 -2 4 4 -3 6 -2 13 3 16 20 13 18 -24
-2 -38 l-22 -17 22 11 c16 7 23 7 27 -3 3 -6 3 0 1 15 -2 20 0 25 11 21 8 -3
12 -9 9 -14 -3 -4 4 -13 15 -19 16 -9 25 -8 36 1 9 7 14 8 14 1 0 -6 -5 -14
-10 -17 -15 -9 -12 -25 6 -25 9 0 12 -5 8 -12 -5 -7 -3 -8 6 -3 10 6 10 10 -3
19 -14 11 -13 14 3 36 10 13 16 30 13 37 -3 7 0 13 5 13 6 0 9 -9 7 -20 -2
-11 0 -20 6 -20 5 0 9 -5 9 -11 0 -8 -4 -8 -13 -1 -10 8 -13 6 -14 -11 -2 -15
0 -18 6 -9 6 11 10 10 15 -3 3 -10 12 -15 21 -11 8 3 17 1 20 -4 4 -6 12 -10
18 -10 7 0 4 7 -6 15 -11 7 -25 11 -33 8 -8 -3 -14 -1 -14 5 0 14 28 23 35 11
4 -5 10 -7 15 -4 5 3 12 -4 15 -15 5 -17 10 -19 21 -9 10 8 18 8 27 1 9 -8 16
-6 25 8 14 23 60 20 79 -5 7 -11 13 -14 13 -8 0 7 -5 15 -11 19 -8 5 -6 10 5
16 17 10 13 28 -7 28 -7 0 -6 -4 3 -11 13 -9 12 -10 -2 -5 -10 3 -20 1 -23 -4
-4 -6 -11 -10 -16 -10 -6 0 -7 4 -4 10 3 5 0 8 -7 5 -7 -3 -19 4 -26 15 -7 11
-8 20 -3 20 5 0 11 -5 13 -12 5 -15 39 -19 55 -7 7 6 18 7 24 3 9 -5 10 -2 6
12 -7 19 -7 19 8 0 10 -14 12 -24 4 -38 -16 -29 -6 -31 34 -8 20 12 41 19 46
16 5 -4 12 -2 16 4 4 6 11 8 16 5 5 -4 9 -1 9 4 0 14 -17 14 -25 1 -4 -6 -10
-8 -15 -5 -5 3 -23 -1 -40 -10 -17 -9 -30 -11 -30 -5 0 5 5 10 11 10 5 0 8 4
5 9 -3 5 2 15 12 22 15 13 16 12 3 -4 -13 -17 -12 -18 15 -11 40 9 45 14 37
27 -4 7 6 4 21 -7 16 -10 26 -14 23 -9 -3 5 8 18 26 28 40 23 49 36 36 52 -8
9 -6 12 8 11 23 0 64 10 72 17 7 8 -45 -1 -59 -10 -5 -3 -10 -1 -10 4 0 6 5
11 11 11 5 0 7 5 4 10 -4 6 -11 7 -17 4 -7 -4 -8 -2 -4 4 5 9 13 9 26 2 25
-13 33 -13 27 3 -2 6 2 24 9 38 7 15 10 30 6 34 -4 5 -2 6 3 2 16 -9 35 7 40
33 2 12 7 25 11 29 4 3 4 -2 1 -11 -7 -21 3 -24 21 -6 17 17 46 20 33 4 -6 -7
-8 -16 -4 -19 3 -4 1 -7 -5 -7 -7 0 -12 5 -12 11 0 5 -5 7 -11 3 -8 -5 -6 -10
5 -16 18 -10 39 -2 31 13 -7 10 4 12 52 9 44 -2 59 8 36 27 -17 13 -16 13 4 4
12 -6 23 -8 26 -3 2 4 2 2 1 -5 -2 -6 3 -14 11 -17 9 -3 12 0 8 10 -3 7 0 14
7 14 6 0 8 -4 5 -10 -3 -5 -2 -10 3 -10 19 0 21 14 5 34 -13 15 -10 14 10 -3
29 -26 36 -47 13 -38 -7 3 -18 1 -24 -5 -7 -7 -16 -7 -29 0 -13 7 -24 6 -38
-4 -10 -8 -14 -14 -8 -14 7 0 15 5 18 10 4 7 11 7 18 2 18 -14 49 -23 42 -13
-3 5 -1 12 5 16 5 3 10 1 10 -5 0 -6 5 -8 10 -5 6 3 10 1 10 -4 0 -6 15 -18
33 -26 17 -8 24 -13 15 -11 -9 3 -19 -2 -22 -10 -8 -22 -7 -26 4 -19 17 10 11
-7 -7 -20 -13 -9 -13 -14 -3 -20 9 -6 11 -4 5 6 -6 11 -5 11 5 2 12 -11 5 -37
-8 -29 -14 9 -5 -46 9 -56 11 -8 10 -9 -4 -4 -15 5 -17 2 -12 -13 3 -11 1 -22
-4 -26 -7 -4 -8 1 -5 12 5 15 4 15 -4 3 -8 -10 -8 -18 0 -27 6 -7 7 -13 2 -13
-4 0 -3 -5 3 -11 9 -9 6 -17 -10 -31 -12 -11 -16 -17 -9 -13 6 3 12 2 12 -2 0
-5 -6 -15 -12 -22 -11 -11 -10 -12 2 -6 13 8 13 7 1 -8 -9 -12 -10 -17 -2 -17
7 0 9 -5 4 -12 -11 -19 -12 -37 -3 -43 9 -5 7 -28 -6 -67 -3 -11 -2 -18 3 -15
5 3 9 -7 8 -23 0 -15 -3 -26 -7 -23 -5 2 -8 -1 -8 -6 0 -6 6 -11 13 -11 8 0 7
-4 -3 -10 -10 -6 -11 -10 -2 -10 6 0 12 -5 12 -11 0 -5 -4 -8 -9 -5 -5 4 -8
-1 -7 -10 1 -8 9 -20 17 -25 11 -7 10 -9 -6 -9 -19 -1 -19 -1 -2 -11 18 -10
18 -11 0 -32 -10 -11 -12 -17 -5 -13 16 9 16 -6 0 -24 -11 -12 -10 -12 5 0 10
7 16 19 13 27 -3 7 -1 13 5 13 7 0 9 -10 4 -27 -6 -24 -5 -25 11 -12 17 13 17
13 2 -10 -16 -23 -14 -56 2 -46 10 6 8 -15 -3 -32 -4 -6 -1 -13 5 -16 10 -3
10 -7 0 -19 -11 -14 -10 -18 5 -30 23 -17 27 -36 11 -57 -10 -13 -10 -14 2 -4
18 17 35 17 23 1 -14 -18 -12 -45 4 -45 9 0 10 4 2 13 -10 13 6 32 18 20 4 -3
1 -6 -6 -6 -7 0 -9 -5 -6 -10 4 -6 10 -8 15 -5 11 7 7 -22 -5 -32 -4 -4 -5 -3
-2 3 4 7 -2 9 -19 6 -31 -6 -25 -13 13 -14 17 -1 30 -6 30 -14 0 -6 -6 -10
-13 -7 -6 2 -15 -1 -20 -8 -4 -7 -3 -10 4 -5 7 4 10 -3 8 -21 -1 -16 -8 -27
-15 -25 -7 1 -9 -2 -6 -9 5 -8 10 -8 18 0 17 17 31 13 17 -5 -8 -8 -9 -14 -4
-12 14 4 65 -33 58 -43 -5 -8 10 -13 29 -10 5 1 6 -3 3 -8 -4 -5 -2 -12 4 -16
6 -4 8 -10 5 -15 -3 -5 -1 -11 5 -15 5 -3 10 -1 10 5 0 6 5 8 10 5 6 -3 10
-11 10 -16 0 -6 -5 -7 -10 -4 -6 4 -10 -5 -10 -20 0 -16 -4 -24 -11 -19 -6 3
-9 15 -6 25 3 10 0 17 -7 16 -6 -1 -10 4 -9 11 2 6 -2 12 -8 12 -7 0 -8 -7 -4
-18 5 -9 8 -33 9 -54 0 -20 4 -34 9 -31 4 2 5 14 1 26 -6 21 -5 21 12 5 14
-14 15 -20 4 -32 -8 -11 -9 -16 -1 -16 6 0 11 5 11 11 0 5 4 8 10 4 5 -3 7
-12 3 -20 -3 -8 0 -15 7 -15 6 0 8 5 5 10 -9 15 4 12 20 -4 17 -16 10 -27 -13
-19 -13 4 -14 3 -3 -5 11 -8 11 -10 0 -15 -8 -3 -9 -6 -4 -6 6 0 23 11 38 24
29 26 28 50 -2 40 -9 -3 -26 1 -37 9 -17 13 -17 15 -2 21 9 4 27 -1 40 -9 14
-9 28 -13 32 -9 4 5 7 3 6 -2 -5 -21 0 -36 10 -30 16 10 11 -1 -7 -16 -15 -12
-16 -12 -8 1 5 8 -7 2 -26 -15 -20 -16 -34 -32 -33 -34 2 -2 10 2 18 8 8 7 20
10 25 6 7 -4 8 1 4 11 -4 11 -2 15 4 11 5 -4 19 0 29 8 24 18 38 19 31 2 -3
-7 1 -21 9 -32 10 -14 14 -15 14 -4 1 8 7 3 14 -10 10 -18 15 -20 20 -10 3 8
3 3 -1 -11 -5 -21 -4 -23 9 -12 13 10 17 10 22 -3 3 -8 11 -15 18 -15 9 0 9 3
0 12 -15 15 -15 28 -1 28 5 0 8 -4 4 -9 -7 -12 30 -33 40 -23 3 4 5 0 3 -8 -2
-9 4 -14 14 -14 10 1 14 -4 11 -13 -3 -8 0 -13 7 -11 7 2 13 -7 15 -19 1 -14
-3 -19 -12 -16 -7 3 -11 9 -8 13 3 4 -2 13 -10 20 -12 10 -15 10 -15 -1 0 -11
-2 -11 -10 1 -8 12 -10 12 -10 1 0 -8 -3 -11 -6 -8 -4 4 -2 13 4 20 7 8 9 17
5 20 -10 11 -21 8 -20 -5 1 -32 -4 -49 -12 -43 -15 9 -25 -15 -12 -28 9 -9 11
-8 6 4 -3 9 0 16 7 17 7 0 25 3 41 6 26 6 27 5 15 -14 -7 -11 -16 -20 -20 -20
-5 0 -8 -5 -8 -10 0 -6 11 -3 25 6 23 15 27 15 60 -6 27 -17 34 -18 29 -6 -3
9 -10 14 -15 11 -10 -7 -31 30 -22 39 14 14 24 5 17 -16 -6 -20 -5 -21 9 -9 9
7 22 11 29 8 8 -3 5 -6 -6 -6 -16 -1 -18 -3 -7 -13 10 -11 15 -9 26 5 11 16
13 14 11 -14 -1 -21 -11 -39 -31 -56 -18 -15 -22 -21 -9 -14 12 6 25 7 29 3 5
-4 5 -2 1 5 -3 6 -2 14 4 18 5 3 10 0 10 -7 0 -8 3 -9 8 -3 9 13 32 18 32 7 0
-10 51 -37 63 -33 5 1 6 -9 2 -21 -5 -22 -5 -21 9 2 13 22 15 23 21 8 4 -10
12 -18 17 -18 7 0 6 5 -1 13 -6 8 -8 17 -5 20 4 4 -3 4 -15 2 -12 -2 -19 0
-16 6 4 5 11 7 16 4 5 -4 9 0 9 7 0 8 3 9 8 3 11 -16 34 -17 44 -3 6 9 7 6 4
-8 -6 -21 -4 -22 48 -26 14 -1 23 -5 20 -9 -2 -4 -13 -6 -23 -4 -11 2 -22 -3
-25 -11 -4 -10 -2 -12 6 -8 6 4 27 8 46 10 19 1 38 8 43 15 5 8 9 9 9 4 0 -6
-4 -15 -9 -20 -5 -6 -5 -18 0 -30 9 -19 9 -19 5 2 -4 24 21 40 38 23 20 -20
29 -10 10 13 -19 22 -19 22 1 6 11 -9 28 -15 37 -14 10 2 15 -2 12 -10 -6 -14
12 -15 34 -2 7 5 12 4 12 -2 0 -6 -3 -11 -7 -12 -42 -4 -61 -14 -49 -26 4 -4
10 -3 14 2 11 15 56 19 47 4 -5 -8 -4 -10 3 -5 7 4 12 15 12 24 0 14 2 15 10
2 5 -9 5 -19 -1 -26 -7 -8 -6 -14 1 -19 6 -4 9 -1 8 6 -2 7 4 13 12 14 8 0 15
5 15 12 0 6 4 15 9 20 5 5 6 3 2 -5 -4 -7 -1 -12 8 -12 9 0 16 6 16 12 0 7 7
3 15 -9 15 -22 52 -22 38 0 -3 6 -1 7 5 3 7 -4 12 -1 12 6 0 10 2 10 9 -1 6
-9 11 -10 15 -2 5 8 16 5 35 -9 16 -10 31 -17 35 -13 3 3 6 -2 6 -13 1 -13 6
-8 15 15 10 23 20 31 30 27 8 -3 15 0 15 7 0 7 3 8 8 2 9 -13 65 -17 57 -5 -3
6 1 7 9 4 9 -3 16 -10 16 -16 0 -5 -4 -6 -10 -3 -6 4 -7 -1 -3 -11 5 -15 7
-15 15 0 5 9 14 16 19 16 6 0 7 -4 4 -10 -3 -5 -1 -10 5 -10 7 0 9 7 6 16 -3
9 -6 18 -6 20 0 3 -5 2 -12 -2 -7 -4 -8 -3 -4 5 6 9 11 9 24 -1 14 -11 15 -10
8 7 -4 11 -3 16 1 11 4 -4 8 -17 8 -29 0 -11 7 -22 15 -24 13 -4 13 -3 0 6
-22 15 -5 24 22 11 l23 -12 -23 21 c-20 20 -22 41 -5 41 4 0 3 -3 0 -7 -9 -8
24 -32 43 -32 9 0 5 5 -9 13 -14 8 -19 16 -13 20 6 3 12 1 14 -4 2 -6 13 -12
26 -13 12 0 22 -6 22 -12 0 -5 5 -2 11 8 5 9 7 23 3 30 -4 6 -4 9 0 5 4 -3 23
0 42 8 19 8 34 10 34 5 0 -9 -38 -27 -51 -24 -12 3 -5 -26 7 -31 9 -3 11 1 7
12 -3 9 -3 14 2 10 4 -4 14 0 22 8 14 13 17 13 28 -3 7 -10 11 -21 9 -25 -2
-4 0 -9 5 -12 12 -8 8 13 -7 41 -7 12 -12 30 -12 40 0 12 5 9 16 -12 20 -39
23 -41 23 -19 1 44 5 52 19 46 11 -4 13 -1 7 8 -5 8 -4 11 3 6 5 -3 13 0 15 6
4 10 6 10 6 1 1 -7 5 -13 11 -13 5 0 9 3 9 8 -1 4 -1 14 0 22 1 13 2 13 11 0
5 -9 5 -19 -2 -27 -6 -8 -8 -16 -5 -19 3 -3 11 5 18 17 12 23 12 23 20 4 6
-16 8 -17 8 -3 1 9 -7 22 -16 27 -16 9 -16 10 4 11 17 0 21 5 17 18 -5 16 -5
16 6 0 15 -24 27 -23 35 2 4 11 11 17 17 14 6 -4 5 -10 -3 -15 -8 -5 -9 -9 -3
-9 15 0 39 29 30 37 -3 3 -6 0 -6 -7 0 -7 -2 -11 -5 -8 -3 3 -2 13 1 23 6 16
8 15 19 -5 10 -19 13 -20 18 -6 5 12 3 15 -6 10 -9 -6 -9 -5 0 8 7 8 10 17 7
21 -3 3 6 4 20 3 27 -3 35 8 14 18 -7 3 -4 4 7 3 11 -1 19 3 18 10 -2 8 4 10
14 6 9 -4 14 -2 10 3 -3 5 6 11 19 12 15 1 23 -2 19 -8 -4 -6 -10 -8 -14 -5
-5 2 -21 -8 -37 -24 -16 -16 -34 -27 -40 -24 -17 6 -23 -9 -13 -32 8 -18 9
-18 5 3 -4 18 -1 22 11 18 10 -4 22 2 30 14 15 21 16 21 36 3 17 -14 19 -14 9
-1 -11 14 -10 19 9 32 18 12 20 18 10 30 -9 11 -9 16 0 22 8 4 9 3 5 -4 -4 -7
-2 -12 3 -12 6 0 11 5 11 10 0 6 4 10 10 10 5 0 6 -7 3 -17 -4 -11 -3 -14 5
-9 7 4 12 15 12 24 1 15 3 14 16 -3 16 -20 16 -19 9 4 -5 17 -4 21 5 16 8 -5
8 -1 -1 13 -7 12 -18 18 -24 15 -5 -4 -7 -2 -2 2 4 5 17 10 29 12 30 5 33 10
17 29 -13 16 -12 16 8 6 12 -7 23 -17 25 -24 3 -7 7 -4 12 7 4 11 4 16 0 13
-3 -4 -12 -1 -19 5 -10 10 -5 19 25 49 21 21 34 40 29 44 -15 9 0 24 17 17 13
-5 13 -8 2 -15 -10 -8 -10 -9 2 -5 8 2 16 14 18 26 3 16 9 21 24 19 18 -3 22
3 24 35 2 23 0 36 -6 32 -6 -3 -7 1 -3 10 5 13 7 14 14 3 5 -7 17 -14 28 -14
11 -1 18 3 15 8 -3 4 -10 6 -15 3 -5 -4 -9 1 -9 9 0 19 11 20 30 4 12 -11 12
-10 2 4 -10 13 -10 17 0 22 7 3 2 3 -12 0 -21 -4 -22 -3 -7 6 9 6 15 15 12 21
-4 5 -1 9 5 9 6 0 8 4 5 10 -3 6 1 7 9 4 9 -3 16 -2 16 4 0 6 -6 13 -12 15 -8
3 -6 6 5 6 9 1 17 5 17 11 0 5 -8 7 -17 4 -10 -2 0 4 21 14 32 15 36 20 22 25
-9 4 -15 3 -12 -1 3 -5 -1 -9 -8 -9 -22 0 -8 22 22 35 15 6 18 9 7 7 -16 -4
-20 0 -20 19 0 14 5 22 11 19 17 -6 28 17 15 30 -9 9 -11 8 -6 -6 4 -9 5 -17
2 -17 -14 0 -14 30 1 42 13 11 14 11 7 -1 -5 -10 -4 -12 4 -7 6 4 9 11 6 16
-3 5 0 12 5 15 8 5 5 14 -6 26 -16 18 -16 19 -1 13 10 -3 17 -1 17 5 0 6 -5
11 -11 11 -6 0 -1 9 12 20 13 11 20 20 14 19 -5 -1 -17 -1 -25 0 -13 1 -13 3
0 10 8 6 19 7 24 3 6 -3 0 12 -13 34 l-23 39 28 -25 c16 -14 24 -19 18 -12
-13 16 -6 62 10 62 6 0 5 4 -3 9 -10 7 -12 14 -5 23 12 17 12 48 -1 46 -6 -1
-9 -9 -7 -18 2 -13 2 -13 -7 0 -7 9 -6 19 0 27 6 7 7 18 3 25 -5 8 -1 8 11 -2
17 -13 18 -13 10 0 -12 20 -12 43 0 53 6 5 3 7 -7 4 -14 -5 -16 0 -11 29 5 31
3 34 -18 35 -18 1 -19 2 -6 6 15 4 16 7 5 21 -8 9 -8 13 -1 9 15 -9 11 16 -6
37 -11 13 -11 19 -1 31 10 12 10 15 -1 15 -11 0 -11 2 1 10 13 9 13 10 0 10
-13 0 -13 1 0 10 12 8 10 10 -8 10 -25 0 -26 21 -1 28 11 3 11 1 -1 -8 -12 -9
-12 -11 -1 -8 17 5 26 48 10 48 -5 0 -8 -3 -5 -8 2 -4 -7 -12 -20 -19 l-24
-11 20 25 c19 24 19 26 2 57 -9 17 -17 38 -17 46 -1 8 -6 14 -13 12 -7 -1 -12
2 -12 8 0 5 5 10 11 10 8 0 7 6 -2 17 -13 15 -12 15 8 2 14 -8 18 -16 12 -20
-8 -5 -8 -8 -1 -13 6 -4 8 -14 5 -24 -3 -9 -3 -14 2 -10 4 4 8 18 9 30 0 13 7
23 14 23 6 0 12 3 12 8 0 4 0 10 0 13 0 4 -6 1 -14 -5 -10 -9 -16 -8 -26 4 -9
10 -9 15 -1 15 6 0 11 -5 11 -11 0 -5 4 -8 10 -4 5 3 6 13 3 22 -5 13 -1 12
17 -5 16 -15 27 -19 35 -12 7 5 15 6 19 2 4 -4 7 -2 6 3 -5 23 1 46 10 40 5
-3 7 -13 4 -23 -5 -15 -4 -15 6 1 6 9 15 15 21 12 5 -4 9 -1 9 5 0 7 -6 10
-14 7 -8 -3 -17 0 -19 7 -6 14 11 36 26 36 5 0 20 11 33 25 13 14 26 25 30 24
3 0 9 3 12 7 4 4 2 4 -5 0 -7 -4 -11 1 -10 13 0 11 6 17 14 14 7 -3 13 -1 13
5 0 6 -5 12 -11 14 -12 4 -1 38 13 38 7 0 6 -5 -1 -13 -8 -10 -7 -14 3 -14 8
0 13 7 11 16 -1 9 3 20 9 24 6 5 -2 6 -19 3 -16 -3 -24 -3 -17 0 6 3 9 11 6
16 -4 6 -2 8 3 5 6 -4 16 0 23 8 11 13 10 14 -6 8 -17 -6 -17 -5 -5 10 7 9 9
17 4 17 -5 0 -10 7 -10 15 0 13 4 12 21 -2 19 -17 20 -17 7 -1 -7 10 -11 24
-8 32 3 7 -1 23 -9 34 -8 12 -10 23 -5 27 5 3 15 -3 21 -12 8 -15 9 -12 4 11
-5 22 -4 27 6 21 9 -6 11 -4 5 4 -5 9 -10 10 -18 2 -6 -6 -15 -11 -21 -11 -5
0 1 9 14 20 22 19 16 26 -15 20 -5 -1 -5 4 1 10 9 9 18 9 35 0 l24 -11 -24 19
c-16 13 -20 21 -12 26 6 4 8 12 5 18 -10 16 -13 77 -4 83 4 2 6 -11 5 -30 -2
-22 3 -39 13 -47 13 -11 14 -11 7 2 -15 25 -17 52 -3 44 9 -5 9 -2 -1 9 -7 9
-10 17 -7 17 4 0 2 10 -5 22 -10 19 -9 20 7 14 15 -6 17 -5 7 5 -7 7 -13 17
-13 22 0 4 6 5 13 1 10 -6 10 -4 0 7 -15 15 -18 33 -5 25 5 -3 9 1 9 9 0 8 -4
12 -9 9 -4 -3 -8 0 -8 5 0 6 5 11 12 11 9 0 9 3 1 11 -13 13 -6 42 8 33 14 -8
10 3 -6 20 -13 12 -13 19 -3 35 9 15 9 23 -1 34 -9 12 -9 17 0 23 8 5 10 3 4
-7 -6 -11 -5 -12 5 -2 17 16 22 43 8 43 -6 0 -8 -7 -5 -14 4 -10 1 -13 -9 -9
-9 3 -11 9 -5 17 4 6 12 21 15 33 6 19 4 22 -11 17 -16 -6 -15 -5 2 9 21 16
40 13 29 -5 -4 -7 -2 -8 5 -4 16 10 -7 39 -25 32 -7 -3 -16 -1 -19 5 -4 5 -3
9 2 8 4 -1 15 -1 23 0 13 1 13 3 1 10 -12 8 -12 12 -2 24 8 10 9 17 1 22 -5 3
-10 1 -10 -6 0 -7 -3 -10 -6 -6 -3 3 -3 11 1 17 5 8 11 8 21 -1 11 -9 12 -15
3 -26 -10 -11 -9 -12 5 -7 18 7 21 20 6 29 -5 3 -10 13 -10 21 0 9 5 12 12 8
7 -5 8 -3 3 7 -13 20 -13 49 -1 49 6 0 5 4 -3 9 -8 5 -15 19 -16 30 -1 17 1
19 14 8 13 -10 12 -7 -2 15 -13 21 -14 26 -3 22 18 -7 30 12 15 22 -8 5 -9 3
-4 -7 5 -8 4 -11 -1 -6 -14 13 -13 59 2 53 8 -3 11 0 7 9 -3 8 -10 12 -15 9
-6 -4 -5 4 2 16 9 17 9 24 0 30 -8 5 -7 9 4 13 9 4 16 1 16 -5 0 -6 3 -9 6 -5
4 3 -3 18 -15 33 -16 20 -18 30 -10 40 9 11 8 18 -2 32 -13 15 -12 16 3 4 17
-14 21 -55 4 -45 -5 3 -6 1 -2 -6 12 -20 25 -2 21 29 -3 22 -1 29 8 23 7 -4 7
0 -2 10 -13 16 -8 22 13 18 5 -1 4 5 -4 13 -10 13 -10 19 1 33 8 9 9 14 4 11
-6 -4 -17 -3 -25 2 -13 8 -13 11 -1 22 11 11 13 11 6 -1 -5 -8 -4 -12 2 -8 12
8 8 64 -7 82 -9 11 -7 12 12 8 16 -3 19 -2 10 5 -14 10 -13 33 3 44 6 5 6 8
-1 8 -7 0 -15 7 -18 16 -5 12 -2 15 11 10 15 -5 15 -4 -1 9 -18 14 -18 15 -2
15 16 0 16 1 2 16 -17 17 -21 28 -7 20 5 -3 12 1 15 10 3 8 2 13 -2 10 -4 -3
-13 4 -20 14 -9 14 -9 21 0 26 7 4 8 3 4 -4 -4 -7 -3 -12 3 -12 5 0 12 3 14 8
6 9 -19 33 -27 25 -3 -4 -6 -1 -6 6 0 8 8 11 20 8 14 -3 18 -1 13 6 -4 7 -8
18 -9 24 -3 19 -30 43 -39 35 -5 -4 -5 -1 0 6 5 10 10 11 18 3 14 -14 27 -14
27 0 0 5 -4 7 -10 4 -6 -4 -7 6 -4 25 4 18 2 30 -4 30 -5 0 -8 -10 -6 -22 2
-13 1 -16 -2 -8 -4 8 -12 18 -18 22 -8 6 -8 8 1 8 15 0 11 23 -7 46 -14 16
-13 16 8 5 22 -12 23 -11 12 9 -6 11 -15 18 -20 15 -4 -3 -6 4 -3 15 4 14 0
20 -11 20 -10 0 -14 5 -11 10 4 6 11 8 16 5 5 -3 6 1 3 9 -3 9 -13 16 -21 16
-13 0 -13 2 -2 17 10 11 10 14 2 9 -8 -4 -13 -2 -13 6 0 9 -3 9 -10 -2 -5 -8
-10 -10 -10 -5 0 6 6 17 13 24 10 11 10 13 0 7 -8 -4 -13 -1 -13 8 0 8 -6 17
-12 19 -10 4 -10 7 0 15 10 7 7 13 -15 27 l-28 18 18 -20 c15 -17 16 -23 5
-29 -7 -4 -10 -3 -5 1 4 5 -2 19 -14 31 -12 13 -19 30 -16 38 3 8 -1 17 -9 20
-9 3 -12 10 -9 16 3 6 -1 7 -9 4 -9 -3 -16 -11 -16 -17 0 -6 -3 -7 -6 -4 -4 4
-1 14 7 24 12 15 12 16 -3 10 -10 -3 -20 -2 -23 4 -4 5 -11 6 -17 3 -7 -4 -8
-2 -4 5 6 9 11 9 22 0 18 -15 18 -2 0 16 -10 11 -16 11 -25 2 -9 -9 -11 -8 -5
7 4 11 3 17 -2 14 -12 -8 -35 17 -26 28 4 4 2 4 -4 1 -6 -4 -20 0 -30 8 -19
14 -18 14 1 11 11 -2 14 -1 7 1 -7 3 -10 10 -6 16 3 7 -4 1 -17 -13 -19 -22
-21 -22 -15 -5 5 17 1 21 -21 23 -15 1 -30 8 -35 15 -6 9 -8 9 -8 0 0 -7 -5
-13 -11 -13 -5 0 -7 6 -3 13 5 7 0 6 -11 -3 -11 -9 -16 -10 -11 -2 4 7 1 12
-9 12 -10 0 -13 -5 -9 -12 4 -7 3 -8 -5 -4 -9 6 -9 12 1 24 7 10 8 14 3 9 -4
-4 -18 1 -29 10 -12 10 -15 11 -8 3 6 -8 12 -18 12 -22 0 -9 -41 12 -51 25 -3
5 -9 1 -12 -8 -5 -10 -3 -14 5 -9 7 4 8 3 4 -4 -4 -6 -13 -9 -21 -6 -8 4 -12
11 -8 17 3 5 1 7 -5 3 -5 -3 -13 0 -16 6 -3 7 -4 4 -1 -8 4 -14 0 -21 -9 -21
-9 0 -12 5 -9 10 4 7 -1 8 -13 3 -34 -14 -48 -14 -83 0 -27 11 -31 12 -22 1 8
-11 6 -13 -9 -12 -11 1 -23 5 -27 10 -5 4 -1 4 7 0 13 -8 13 -7 1 8 -7 9 -19
17 -25 16 -6 0 -5 -3 3 -6 9 -4 3 -10 -18 -19 -21 -9 -30 -18 -25 -25 4 -8 3
-9 -4 -5 -6 4 -8 14 -5 24 6 16 5 16 -13 0 -19 -16 -20 -16 -21 3 -1 10 2 17
7 14 5 -3 11 -1 15 4 3 6 -3 8 -13 6 -32 -6 -60 30 -40 50 4 4 0 17 -8 29 -8
13 -12 25 -9 28 4 3 -4 14 -17 24 -13 11 -23 29 -22 41 1 12 -3 20 -7 17 -8
-5 -13 10 -10 29 1 5 -3 6 -9 2 -6 -3 -7 -11 -4 -17 4 -6 2 -8 -4 -5 -5 4 -9
18 -8 31 2 16 -1 23 -10 19 -7 -2 -10 -12 -7 -21 4 -9 3 -14 -1 -10 -4 3 -8
12 -10 20 -1 7 -5 19 -9 26 -5 6 -5 17 -2 22 4 6 1 9 -7 8 -7 -2 -12 2 -11 8
1 6 -4 11 -12 11 -8 0 -12 -4 -10 -8 4 -6 -18 -5 -35 1 -3 1 -9 2 -13 1 -4 -1
-10 5 -13 13 -3 9 -15 13 -29 10 -13 -2 -26 0 -30 6 -3 6 1 7 9 4 9 -3 16 -1
16 6 0 6 -4 8 -10 5 -5 -3 -10 0 -10 7 -1 7 -7 2 -14 -11 l-14 -24 -6 21 c-4
12 -12 22 -17 22 -5 0 -9 5 -9 11 0 8 4 8 14 0 10 -8 16 -9 21 -1 4 6 1 9 -7
8 -7 -2 -12 3 -10 11 2 9 -3 11 -15 7 -14 -6 -15 -4 -6 5 13 13 6 42 -8 33 -5
-3 -9 2 -9 11 0 9 4 13 10 10 6 -4 7 1 3 11 -5 15 -7 15 -15 0 -5 -9 -14 -16
-19 -16 -6 0 -7 6 -3 13 5 9 4 9 -6 0 -14 -13 -4 -37 12 -27 7 4 8 2 4 -4 -4
-6 -14 -8 -24 -5 -15 6 -15 5 -3 -10 12 -15 11 -17 -3 -17 -9 0 -16 -6 -16
-12 0 -9 -4 -8 -10 2 -8 12 -10 12 -10 -5 -1 -14 -5 -10 -15 14 -19 42 -19 47
0 31 8 -7 13 -16 10 -19 -2 -4 2 -8 10 -8 8 0 15 4 15 9 0 4 -6 8 -12 8 -9 0
-8 4 2 11 13 9 12 10 -3 5 -11 -3 -20 0 -23 9 -8 19 -28 19 -44 0 -11 -13 -10
-14 4 -9 9 3 16 2 16 -4 0 -5 -7 -12 -15 -16 -8 -3 -15 -11 -15 -18 0 -9 3 -9
12 0 7 7 17 12 22 12 13 -1 -24 -23 -41 -26 -7 -1 -18 5 -24 14 -10 16 -10 16
-5 0 3 -11 -1 -17 -12 -17 -9 0 -24 -1 -32 -2 -8 -1 -22 0 -30 2 -8 2 -14 -1
-13 -8 1 -6 -4 -14 -12 -17 -9 -3 -12 0 -9 8 3 8 0 17 -7 22 -7 4 -10 3 -5 -4
3 -6 2 -13 -4 -17 -5 -3 -10 0 -10 7 0 10 -3 9 -9 -2 -6 -8 -7 -19 -3 -25 3
-5 -2 -4 -11 4 -13 10 -20 11 -30 2 -10 -8 -17 -7 -26 2 -9 9 -14 9 -21 -3 -7
-10 -10 -11 -11 -2 -3 27 -4 31 -13 39 -5 4 -6 3 -2 -4 3 -6 2 -14 -4 -18 -5
-3 -10 1 -10 10 0 9 -4 14 -9 11 -5 -4 -12 0 -14 6 -4 10 -6 9 -6 -1 -1 -10
-7 -7 -20 7 -10 12 -20 20 -22 17 -3 -2 -10 4 -16 14 -9 14 -8 18 3 18 7 0 11
-3 9 -7 -2 -4 2 -7 9 -7 21 0 9 20 -19 34 -17 7 -23 8 -18 0z m-39 -46 c15
-21 18 -32 10 -37 -7 -4 -8 -3 -4 4 4 7 1 12 -8 12 -20 0 -30 -17 -14 -23 9
-4 10 -6 1 -6 -16 -1 -26 16 -13 24 5 3 10 14 10 23 -1 15 -2 15 -15 -2 -17
-23 -20 -14 -5 15 13 24 12 24 38 -10z m622 -5 c0 -2 -7 -7 -16 -10 -8 -3 -12
-2 -9 4 6 10 25 14 25 6z m200 -151 c0 -8 -2 -15 -4 -15 -2 0 -6 7 -10 15 -3
8 -1 15 4 15 6 0 10 -7 10 -15z m-1110 -45 c0 -5 -5 -10 -11 -10 -5 0 -7 5 -4
10 3 6 8 10 11 10 2 0 4 -4 4 -10z m-10 -23 c0 -2 -10 -12 -21 -23 -22 -19
-22 -19 -8 4 12 19 29 30 29 19z m-50 -82 c0 -2 -10 -9 -22 -15 -22 -11 -22
-10 -4 4 21 17 26 19 26 11z m1295 -5 c3 -5 1 -10 -4 -10 -6 0 -11 5 -11 10 0
6 2 10 4 10 3 0 8 -4 11 -10z m13 -41 c9 -12 9 -16 -1 -16 -7 0 -14 9 -14 20
-1 11 -1 18 0 16 2 -2 8 -11 15 -20z m-2378 -107 c-8 -3 -20 -9 -26 -13 -7 -5
-11 -3 -11 6 0 8 4 12 8 9 4 -2 10 0 14 6 4 6 11 7 18 3 8 -5 7 -8 -3 -11z
m-120 -11 c0 -4 -7 -8 -15 -8 -16 0 -20 9 -9 20 8 8 24 -1 24 -12z m165 9 c3
-6 -1 -7 -9 -4 -18 7 -21 14 -7 14 6 0 13 -4 16 -10z m2470 0 c3 -5 1 -10 -4
-10 -6 0 -11 5 -11 10 0 6 2 10 4 10 3 0 8 -4 11 -10z m263 -15 c-3 -3 -9 2
-12 12 -6 14 -5 15 5 6 7 -7 10 -15 7 -18z m-3138 -9 c0 -2 -7 -7 -16 -10 -8
-3 -12 -2 -9 4 6 10 25 14 25 6z m-280 -106 c0 -5 -5 -10 -11 -10 -5 0 -7 5
-4 10 3 6 8 10 11 10 2 0 4 -4 4 -10z m3760 -61 c0 -6 -4 -7 -10 -4 -5 3 -10
11 -10 16 0 6 5 7 10 4 6 -3 10 -11 10 -16z m117 -185 c-3 -3 -12 -4 -19 -1
-8 3 -5 6 6 6 11 1 17 -2 13 -5z m-4112 -233 c3 -5 2 -12 -3 -15 -5 -3 -9 1
-9 9 0 17 3 19 12 6z m4170 0 c3 -5 2 -12 -3 -15 -5 -3 -9 1 -9 9 0 17 3 19
12 6z m-2 -226 c4 -8 3 -16 -1 -19 -4 -3 -9 4 -9 15 -2 23 3 25 10 4z m0 -90
c-3 -8 -10 -15 -15 -15 -7 0 -6 5 1 13 6 8 7 18 3 22 -4 5 -2 5 5 1 7 -4 10
-13 6 -21z m1 -87 c-1 -13 -3 -25 -4 -28 -1 -3 -2 -9 -1 -13 1 -5 -3 -6 -9 -2
-6 3 -7 12 -3 18 4 7 6 20 5 30 -2 9 1 17 6 17 5 0 8 -10 6 -22z m-4166 -43
c-3 -3 -9 2 -12 12 -6 14 -5 15 5 6 7 -7 10 -15 7 -18z m4127 -355 c3 -5 1
-10 -4 -10 -6 0 -11 5 -11 10 0 6 2 10 4 10 3 0 8 -4 11 -10z m-4085 -615 c-8
-10 -9 -15 -1 -15 6 0 11 -5 11 -11 0 -8 -4 -8 -15 1 -11 9 -12 16 -2 30 6 11
13 17 16 15 2 -3 -2 -11 -9 -20z m4021 -8 c-10 -9 -11 -8 -5 6 3 10 9 15 12
12 3 -3 0 -11 -7 -18z m-158 -490 c4 3 7 4 7 1 0 -3 -6 -11 -14 -17 -11 -9
-15 -7 -19 9 -4 16 -2 19 7 11 7 -6 16 -8 19 -4z m-2633 -11 c0 -2 -9 -6 -20
-9 -11 -3 -18 -1 -14 4 5 9 34 13 34 5z m0 -25 c0 -6 -4 -13 -10 -16 -5 -3
-10 -12 -10 -18 1 -7 10 -1 20 12 18 21 22 19 19 -6 -1 -5 -5 -7 -10 -5 -14 3
-11 -16 4 -22 6 -3 1 -3 -13 0 -32 8 -41 23 -29 46 10 19 29 25 29 9z m-329
-44 c-10 -9 -11 -8 -5 6 3 10 9 15 12 12 3 -3 0 -11 -7 -18z m-31 -37 c0 -5
-2 -10 -4 -10 -3 0 -8 5 -11 10 -3 6 -1 10 4 10 6 0 11 -4 11 -10z m-14 -43
c1 -9 -2 -15 -7 -11 -5 3 -7 9 -4 14 3 4 0 11 -5 13 -6 3 -5 4 1 3 7 -1 13
-10 15 -19z m2936 -2 c0 -5 -5 -10 -11 -11 -8 -2 -7 -1 0 3 8 4 7 8 -2 15 -11
8 -11 9 -1 6 8 -2 14 -8 14 -13z m-3662 -25 c0 -5 -2 -10 -4 -10 -3 0 -8 5
-11 10 -3 6 -1 10 4 10 6 0 11 -4 11 -10z m675 -60 c-3 -4 -20 -17 -39 -28
-32 -19 -36 -19 -48 -4 -12 15 -11 16 5 3 15 -12 21 -9 18 12 0 4 2 6 7 6 18
-3 33 2 28 9 -2 4 4 9 15 9 11 1 17 -2 14 -7z m-415 -44 c0 -2 -8 -10 -17 -17
-16 -13 -17 -12 -4 4 13 16 21 21 21 13z m55 -16 c3 -5 1 -10 -4 -10 -6 0 -11
5 -11 10 0 6 2 10 4 10 3 0 8 -4 11 -10z m5 -30 c14 0 18 5 14 18 -5 14 -4 14
4 2 6 -8 8 -18 5 -24 -4 -5 1 -7 9 -3 9 3 19 3 22 0 10 -10 -19 -28 -46 -30
-25 -1 -33 7 -29 30 0 4 -3 7 -9 7 -5 0 -10 -5 -10 -11 0 -8 -4 -9 -13 0 -8 6
-17 8 -20 4 -4 -3 -7 -2 -7 4 0 6 7 14 16 17 8 3 12 2 9 -4 -3 -6 -1 -10 4
-10 6 0 11 8 11 18 1 16 1 16 11 0 5 -10 19 -18 29 -18z m107 24 c-3 -3 -12
-4 -19 -1 -8 3 -5 6 6 6 11 1 17 -2 13 -5z m-277 -24 c8 -5 11 -10 5 -10 -5 0
-17 5 -25 10 -8 5 -10 10 -5 10 6 0 17 -5 25 -10z m3553 -100 c-3 -12 -8 -19
-11 -16 -5 6 5 36 12 36 2 0 2 -9 -1 -20z m17 -50 c0 -5 -5 -10 -11 -10 -5 0
-7 5 -4 10 3 6 8 10 11 10 2 0 4 -4 4 -10z m2 -94 c10 6 11 4 0 -7 -10 -11
-15 -10 -30 6 -15 17 -15 18 0 6 9 -7 23 -9 30 -5z m-7 -35 c3 -5 0 -13 -6
-17 -7 -4 -9 -3 -5 4 3 5 0 13 -6 15 -9 4 -10 6 -1 6 6 1 14 -3 18 -8z m-25
-205 c0 -3 -4 -8 -10 -11 -5 -3 -10 -1 -10 4 0 6 5 11 10 11 6 0 10 -2 10 -4z
m-2574 -91 c-3 -8 2 -21 10 -30 18 -17 11 -19 -17 -5 -16 9 -17 14 -6 30 14
24 22 26 13 5z m62 -217 c-2 -7 2 -12 9 -13 7 0 18 -6 25 -14 10 -10 10 -12 1
-7 -7 4 -13 3 -13 -3 0 -5 8 -15 18 -20 9 -6 13 -10 7 -10 -5 0 -19 6 -29 14
-11 8 -16 15 -11 15 4 0 1 8 -8 18 -10 10 -14 22 -10 25 10 10 13 8 11 -5z
m2349 -75 c0 -9 -6 -9 -21 -1 -30 15 -30 16 -3 14 13 0 24 -6 24 -13z m-2192
-132 c-15 -13 -62 -26 -50 -13 6 5 19 12 30 15 11 3 22 5 25 6 2 0 0 -3 -5 -8z
m25 -65 c0 -3 -4 -8 -10 -11 -5 -3 -10 -1 -10 4 0 6 5 11 10 11 6 0 10 -2 10
-4z m1977 -22 c-9 -9 -58 -14 -53 -5 2 3 17 8 32 9 15 1 25 -1 21 -4z m-1859
-39 c-3 -3 -9 2 -12 12 -6 14 -5 15 5 6 7 -7 10 -15 7 -18z m261 -162 c-4 -22
3 -31 19 -28 9 2 17 4 17 5 0 1 8 3 18 5 15 3 16 1 5 -13 -11 -13 -11 -15 4
-10 10 4 19 1 22 -9 12 -29 -6 -34 -37 -10 -18 13 -39 23 -48 22 -13 -2 -18
19 -10 43 2 6 11 1 10 -5z m114 -38 c-3 -9 -8 -14 -10 -11 -3 3 -2 9 2 15 9
16 15 13 8 -4z m923 -67 c3 -4 -1 -5 -10 -4 -8 1 -18 5 -22 8 -3 4 1 5 10 4 8
-1 18 -5 22 -8z m-542 -44 c3 -8 2 -12 -4 -9 -6 3 -10 10 -10 16 0 14 7 11 14
-7z m83 -6 c-3 -8 -6 -5 -6 6 -1 11 2 17 5 13 3 -3 4 -12 1 -19z m143 5 c0
-15 -2 -16 -10 -3 -8 12 -10 12 -10 1 0 -8 -3 -12 -6 -8 -8 7 4 27 17 27 5 0
9 -8 9 -17z"/>
<path d="M856 1691 c8 -8 43 -8 38 0 -2 4 -13 7 -24 6 -10 -1 -17 -3 -14 -6z"/>
<path d="M2325 391 c-3 -5 -2 -12 3 -15 5 -3 9 1 9 9 0 17 -3 19 -12 6z"/>
<path d="M3176 5077 c3 -10 9 -15 12 -12 3 3 0 11 -7 18 -10 9 -11 8 -5 -6z"/>
<path d="M3036 5003 c-6 -14 -5 -15 5 -6 7 7 10 15 7 18 -3 3 -9 -2 -12 -12z"/>
<path d="M2844 4990 c0 -10 4 -16 9 -13 4 2 14 0 21 -6 10 -8 16 -8 25 3 9 11
8 15 -4 20 -9 3 -13 2 -10 -4 9 -15 -6 -12 -25 5 -14 13 -16 12 -16 -5z"/>
<path d="M2923 4995 c-3 -9 -3 -18 -1 -21 3 -3 8 4 11 16 6 23 -1 27 -10 5z"/>
<path d="M3383 4954 c0 -7 4 -11 8 -8 4 2 12 -4 18 -13 8 -14 10 -15 11 -3 0
8 -8 20 -18 27 -15 9 -19 8 -19 -3z"/>
<path d="M3430 4931 c0 -6 5 -13 10 -16 6 -3 10 1 10 9 0 9 -4 16 -10 16 -5 0
-10 -4 -10 -9z"/>
<path d="M1680 4630 c-6 -11 -8 -20 -6 -20 3 0 10 9 16 20 6 11 8 20 6 20 -3
0 -10 -9 -16 -20z"/>
<path d="M1743 4640 c2 -8 11 -15 19 -15 8 0 22 -6 30 -13 12 -10 17 -10 26 1
8 10 6 16 -11 27 -20 12 -21 12 -8 -3 8 -10 9 -17 3 -17 -6 0 -14 5 -17 10 -4
6 -11 7 -17 4 -6 -4 -15 0 -20 7 -8 12 -9 11 -5 -1z"/>
<path d="M1440 4611 c0 -7 -5 -9 -12 -5 -7 5 -8 3 -3 -5 5 -9 10 -10 18 -2 6
6 8 14 4 18 -4 3 -7 1 -7 -6z"/>
<path d="M3867 4596 c-3 -8 0 -13 6 -12 15 2 22 19 9 24 -5 1 -12 -4 -15 -12z"/>
<path d="M730 4539 c0 -5 5 -7 10 -4 6 3 10 8 10 11 0 2 -4 4 -10 4 -5 0 -10
-5 -10 -11z"/>
<path d="M380 4099 c0 -5 5 -7 10 -4 6 3 10 8 10 11 0 2 -4 4 -10 4 -5 0 -10
-5 -10 -11z"/>
<path d="M343 3605 c0 -8 4 -12 9 -9 5 3 6 10 3 15 -9 13 -12 11 -12 -6z"/>
<path d="M357 3469 c7 -7 15 -10 18 -7 3 3 -2 9 -12 12 -14 6 -15 5 -6 -5z"/>
<path d="M380 3279 c0 -5 -4 -7 -10 -4 -6 3 -7 -1 -4 -10 5 -12 10 -13 20 -4
8 6 11 15 8 20 -7 12 -14 11 -14 -2z"/>
<path d="M360 3230 c-9 -6 -10 -10 -3 -10 6 0 15 5 18 10 8 12 4 12 -15 0z"/>
<path d="M370 3205 c-9 -11 -10 -18 -1 -28 6 -8 8 -17 4 -20 -3 -4 -1 -7 5 -7
18 0 23 17 7 24 -8 3 -15 10 -15 16 0 6 4 9 8 6 5 -3 9 1 9 9 0 19 -2 19 -17
0z"/>
<path d="M379 3077 c6 -8 7 -18 3 -22 -4 -5 -2 -5 5 -1 14 8 6 36 -9 36 -7 0
-6 -5 1 -13z"/>
<path d="M400 2729 c0 -5 5 -7 10 -4 6 3 10 8 10 11 0 2 -4 4 -10 4 -5 0 -10
-5 -10 -11z"/>
<path d="M393 2625 c0 -8 4 -12 9 -9 5 3 6 10 3 15 -9 13 -12 11 -12 -6z"/>
<path d="M420 2279 c0 -5 5 -7 10 -4 6 3 10 8 10 11 0 2 -4 4 -10 4 -5 0 -10
-5 -10 -11z"/>
<path d="M402 2235 c13 -14 21 -16 29 -8 8 8 8 13 0 17 -6 4 -11 2 -11 -5 0
-8 -5 -8 -17 2 -17 12 -17 12 -1 -6z"/>
<path d="M390 2216 c0 -2 7 -9 15 -16 9 -7 15 -8 15 -2 0 5 -7 12 -15 16 -8 3
-15 4 -15 2z"/>
<path d="M410 2150 c-9 -6 -10 -10 -3 -10 6 0 15 5 18 10 8 12 4 12 -15 0z"/>
<path d="M4380 2120 c-8 -5 -10 -10 -5 -10 6 0 17 5 25 10 8 5 11 10 5 10 -5
0 -17 -5 -25 -10z"/>
<path d="M4324 2088 c-5 -7 -2 -9 8 -5 9 3 20 1 25 -4 6 -6 10 -5 10 4 0 16
-34 20 -43 5z"/>
<path d="M410 2080 c-9 -6 -10 -10 -3 -10 6 0 15 5 18 10 8 12 4 12 -15 0z"/>
<path d="M376 2022 c-3 -5 1 -9 9 -9 8 0 12 4 9 9 -3 4 -7 8 -9 8 -2 0 -6 -4
-9 -8z"/>
<path d="M1443 1973 c-18 -7 -16 -20 2 -20 8 0 12 4 9 9 -3 4 0 8 5 8 10 0 15
-14 12 -32 0 -5 4 -8 9 -8 13 0 13 6 0 31 -11 19 -16 21 -37 12z"/>
<path d="M1346 1955 c-4 -11 -2 -14 6 -9 7 5 9 2 5 -8 -3 -9 1 -24 9 -35 14
-17 14 -17 7 1 -5 15 -3 17 8 11 12 -7 12 -6 1 7 -7 9 -11 21 -10 28 4 19 -19
23 -26 5z"/>
<path d="M1512 1961 c-11 -7 -11 -9 0 -14 9 -3 15 1 15 9 0 8 -1 14 -1 14 -1
0 -7 -4 -14 -9z"/>
<path d="M429 1942 c6 -11 8 -21 6 -24 -2 -2 5 -5 17 -5 20 -2 20 -1 2 13 -18
14 -18 14 1 7 25 -8 18 0 -13 16 -22 12 -23 11 -13 -7z"/>
<path d="M1593 1945 c0 -8 4 -15 9 -15 4 0 8 4 8 9 0 6 -4 12 -8 15 -5 3 -9
-1 -9 -9z"/>
<path d="M1390 1940 c0 -5 7 -7 15 -4 8 4 15 8 15 10 0 2 -7 4 -15 4 -8 0 -15
-4 -15 -10z"/>
<path d="M4226 1942 c-3 -5 1 -9 9 -9 8 0 12 4 9 9 -3 4 -7 8 -9 8 -2 0 -6 -4
-9 -8z"/>
<path d="M1315 1930 c-3 -5 -4 -10 0 -10 3 0 1 -10 -6 -21 -8 -15 -8 -19 0
-15 6 4 11 1 11 -8 0 -8 4 -18 10 -21 7 -4 7 3 0 20 -13 35 -13 40 5 25 10 -9
15 -9 15 -1 0 6 -5 11 -11 11 -5 0 -8 4 -4 9 3 5 1 12 -4 15 -5 4 -12 2 -16
-4z"/>
<path d="M1432 1916 c1 -15 9 -33 17 -39 12 -10 13 -9 6 3 -5 8 -11 24 -12 34
-5 31 -13 32 -11 2z"/>
<path d="M1533 1910 c1 -21 10 -18 13 5 1 8 -2 15 -6 15 -5 0 -8 -9 -7 -20z"/>
<path d="M1396 1902 c-3 -5 1 -9 9 -9 8 0 12 4 9 9 -3 4 -7 8 -9 8 -2 0 -6 -4
-9 -8z"/>
<path d="M1470 1886 c0 -2 7 -7 16 -10 8 -3 12 -2 9 4 -6 10 -25 14 -25 6z"/>
<path d="M430 1866 c0 -2 9 -6 20 -9 11 -3 18 -1 14 4 -5 9 -34 13 -34 5z"/>
<path d="M471 1827 c-13 -21 -12 -21 5 -5 10 10 16 20 13 22 -3 3 -11 -5 -18
-17z"/>
<path d="M1381 1836 c-9 -11 -9 -16 1 -22 7 -4 10 -4 6 1 -4 4 -3 14 3 22 6 7
9 13 6 13 -2 0 -10 -6 -16 -14z"/>
<path d="M1255 1809 c-4 -6 -5 -12 -2 -15 2 -3 7 2 10 11 7 17 1 20 -8 4z"/>
<path d="M1595 1790 c3 -5 8 -10 11 -10 2 0 4 5 4 10 0 6 -5 10 -11 10 -5 0
-7 -4 -4 -10z"/>
<path d="M495 1770 c-4 -6 -12 -7 -18 -4 -7 4 -8 3 -4 -1 13 -15 34 -14 34 1
0 17 -4 18 -12 4z"/>
<path d="M1265 1760 c10 -11 20 -20 23 -20 3 0 -3 9 -13 20 -10 11 -20 20 -23
20 -3 0 3 -9 13 -20z"/>
<path d="M425 1760 c-3 -6 1 -7 9 -4 18 7 21 14 7 14 -6 0 -13 -4 -16 -10z"/>
<path d="M574 1754 c5 -12 2 -15 -9 -10 -11 4 -14 2 -9 -6 5 -8 1 -9 -12 -4
-14 5 -16 4 -8 -4 16 -16 55 5 48 25 -4 8 -8 15 -11 15 -3 0 -2 -7 1 -16z"/>
<path d="M1220 1766 c0 -2 8 -10 18 -17 15 -13 16 -12 3 4 -13 16 -21 21 -21
13z"/>
<path d="M454 1736 c1 -8 5 -18 8 -22 4 -3 5 1 4 10 -1 8 -5 18 -8 22 -4 3 -5
-1 -4 -10z"/>
<path d="M1155 1701 c-3 -5 -2 -12 3 -15 5 -3 9 1 9 9 0 17 -3 19 -12 6z"/>
<path d="M1595 1700 c-3 -5 -1 -10 4 -10 6 0 11 5 11 10 0 6 -2 10 -4 10 -3 0
-8 -4 -11 -10z"/>
<path d="M436 1678 c3 -5 10 -6 15 -3 13 9 11 12 -6 12 -8 0 -12 -4 -9 -9z"/>
<path d="M621 1674 c0 -11 3 -14 6 -6 3 7 2 16 -1 19 -3 4 -6 -2 -5 -13z"/>
<path d="M660 1680 c0 -5 5 -10 10 -10 6 0 10 5 10 10 0 6 -4 10 -10 10 -5 0
-10 -4 -10 -10z"/>
<path d="M1079 1688 c-6 -20 -5 -38 1 -48 5 -7 7 0 6 19 -1 26 -4 39 -7 29z"/>
<path d="M4271 1674 c0 -11 3 -14 6 -6 3 7 2 16 -1 19 -3 4 -6 -2 -5 -13z"/>
<path d="M936 1658 c3 -5 15 -7 26 -5 16 5 19 2 15 -14 -3 -11 -1 -16 4 -13
19 11 4 37 -24 40 -17 2 -25 -1 -21 -8z"/>
<path d="M757 1645 c-4 -9 -3 -13 3 -10 6 3 10 0 10 -7 0 -9 3 -10 8 -2 4 6
15 10 25 8 9 -1 15 1 12 6 -3 5 -13 7 -23 6 -9 -2 -20 1 -23 6 -3 5 -9 2 -12
-7z"/>
<path d="M686 1642 c-3 -5 1 -9 9 -9 8 0 15 4 15 9 0 4 -4 8 -9 8 -6 0 -12 -4
-15 -8z"/>
<path d="M910 1640 c-13 -8 -12 -10 3 -10 9 0 17 5 17 10 0 12 -1 12 -20 0z"/>
<path d="M838 1633 c7 -3 16 -2 19 1 4 3 -2 6 -13 5 -11 0 -14 -3 -6 -6z"/>
<path d="M795 1611 c-3 -5 -2 -12 3 -15 5 -3 9 1 9 9 0 17 -3 19 -12 6z"/>
<path d="M1070 1616 c0 -2 8 -10 18 -17 15 -13 16 -12 3 4 -13 16 -21 21 -21
13z"/>
<path d="M870 1606 c0 -2 7 -7 16 -10 8 -3 12 -2 9 4 -6 10 -25 14 -25 6z"/>
<path d="M960 1600 c-9 -6 -10 -10 -3 -10 6 0 15 5 18 10 8 12 4 12 -15 0z"/>
<path d="M853 1585 c0 -8 4 -12 9 -9 5 3 6 10 3 15 -9 13 -12 11 -12 -6z"/>
<path d="M670 1580 c0 -5 5 -10 11 -10 5 0 7 5 4 10 -3 6 -8 10 -11 10 -2 0
-4 -4 -4 -10z"/>
<path d="M950 1561 c0 -6 4 -13 10 -16 6 -3 7 1 4 9 -7 18 -14 21 -14 7z"/>
<path d="M870 1526 c0 -2 7 -7 16 -10 8 -3 12 -2 9 4 -6 10 -25 14 -25 6z"/>
<path d="M795 1500 c3 -5 8 -10 11 -10 2 0 4 5 4 10 0 6 -5 10 -11 10 -5 0 -7
-4 -4 -10z"/>
<path d="M1590 921 c0 -6 4 -13 10 -16 6 -3 7 1 4 9 -7 18 -14 21 -14 7z"/>
<path d="M1690 851 c0 -8 -7 -11 -17 -6 -15 5 -16 4 -5 -6 9 -10 15 -10 24 -1
6 6 9 15 5 19 -4 3 -7 1 -7 -6z"/>
<path d="M1627 839 c7 -7 15 -10 18 -7 3 3 -2 9 -12 12 -14 6 -15 5 -6 -5z"/>
<path d="M1729 831 c10 -10 20 -24 22 -30 3 -7 11 -13 19 -14 8 -2 22 -7 30
-12 13 -8 13 -7 1 8 -7 9 -17 15 -21 12 -4 -3 -13 2 -20 10 -10 12 -10 15 1
15 8 0 1 7 -15 15 -37 20 -40 19 -17 -4z"/>
<path d="M1720 809 c0 -5 -4 -8 -8 -5 -4 2 -8 -4 -8 -14 0 -10 7 -17 16 -15 8
1 18 -5 22 -14 6 -12 7 -12 5 4 -2 11 -9 19 -16 17 -8 -2 -10 4 -6 18 3 11 4
20 1 20 -3 0 -6 -5 -6 -11z"/>
<path d="M4096 778 c3 -5 10 -6 15 -3 13 9 11 12 -6 12 -8 0 -12 -4 -9 -9z"/>
<path d="M4010 760 c0 -5 5 -10 10 -10 6 0 10 5 10 10 0 6 -4 10 -10 10 -5 0
-10 -4 -10 -10z"/>
<path d="M3978 743 c-17 -21 -35 -51 -23 -41 4 4 14 3 22 -3 8 -8 13 -8 13 -1
0 6 -6 12 -12 15 -10 4 -10 7 0 18 7 8 12 9 12 2 0 -6 7 -13 14 -16 10 -4 13
-1 9 9 -3 7 -9 14 -15 14 -5 0 -6 5 -3 10 10 16 -1 11 -17 -7z"/>
<path d="M1715 740 c-3 -5 -1 -10 4 -10 6 0 11 5 11 10 0 6 -2 10 -4 10 -3 0
-8 -4 -11 -10z"/>
<path d="M1737 725 c-4 -8 -3 -16 1 -19 4 -3 9 4 9 15 2 23 -3 25 -10 4z"/>
<path d="M1772 720 c0 -14 2 -19 5 -12 2 6 2 18 0 25 -3 6 -5 1 -5 -13z"/>
<path d="M1725 680 c10 -11 20 -20 23 -20 3 0 -3 9 -13 20 -10 11 -20 20 -23
20 -3 0 3 -9 13 -20z"/>
<path d="M4009 683 c-13 -16 -12 -17 4 -4 16 13 21 21 13 21 -2 0 -10 -8 -17
-17z"/>
<path d="M1771 674 c0 -11 3 -14 6 -6 3 7 2 16 -1 19 -3 4 -6 -2 -5 -13z"/>
<path d="M1860 676 c0 -2 7 -7 16 -10 8 -3 12 -2 9 4 -6 10 -25 14 -25 6z"/>
<path d="M1696 653 c-6 -14 -5 -15 5 -6 7 7 10 15 7 18 -3 3 -9 -2 -12 -12z"/>
<path d="M1773 634 c0 -10 4 -11 10 -5 7 7 14 5 22 -6 10 -13 14 -13 20 -3 5
8 4 11 -3 6 -5 -3 -12 -1 -14 6 -6 17 -35 18 -35 2z"/>
<path d="M3911 633 c6 -7 17 -13 23 -12 7 0 6 2 -2 6 -6 2 -10 8 -8 12 3 4 -1
8 -9 8 -11 0 -12 -4 -4 -14z"/>
<path d="M3990 646 c0 -2 7 -7 16 -10 8 -3 12 -2 9 4 -6 10 -25 14 -25 6z"/>
<path d="M1946 601 c-14 -15 -15 -24 -6 -40 6 -12 15 -21 21 -21 6 0 8 -4 4
-10 -3 -5 -13 -7 -23 -4 -14 5 -15 4 -2 -5 11 -7 20 -5 35 9 23 21 47 28 27 8
-7 -7 -12 -17 -12 -22 0 -6 5 -4 10 4 8 13 10 12 10 -3 0 -10 6 -17 13 -15 6
1 23 -4 36 -11 14 -8 21 -9 17 -2 -4 6 -2 11 5 11 7 0 4 6 -7 14 -10 8 -21 11
-24 8 -8 -11 -30 -13 -31 -2 -1 6 -3 15 -4 20 -1 6 -3 14 -4 19 -1 11 -20 9
-39 -3 -21 -13 -27 3 -7 18 13 9 15 15 6 20 -6 4 -9 12 -6 17 10 16 -1 10 -19
-10z m20 -13 c4 -7 3 -8 -4 -4 -7 4 -12 2 -12 -5 0 -7 -3 -10 -6 -6 -6 5 3 27
11 27 2 0 7 -5 11 -12z"/>
<path d="M1787 599 c7 -7 15 -10 18 -7 3 3 -2 9 -12 12 -14 6 -15 5 -6 -5z"/>
<path d="M3915 599 c-3 -4 2 -6 10 -5 21 3 28 13 10 13 -9 0 -18 -4 -20 -8z"/>
<path d="M1885 560 c-3 -6 1 -7 9 -4 18 7 21 14 7 14 -6 0 -13 -4 -16 -10z"/>
<path d="M3870 558 c0 -6 3 -8 7 -5 3 4 13 1 22 -6 14 -11 14 -10 2 6 -15 20
-31 22 -31 5z"/>
<path d="M1910 550 c-13 -8 -12 -10 3 -10 9 0 17 5 17 10 0 12 -1 12 -20 0z"/>
<path d="M3835 540 c-4 -11 -11 -17 -17 -14 -7 5 -8 2 -3 -6 6 -10 11 -10 20
3 7 9 15 14 19 10 4 -4 4 0 0 10 -8 22 -11 21 -19 -3z"/>
<path d="M1793 535 c0 -8 4 -12 9 -9 5 3 6 10 3 15 -9 13 -12 11 -12 -6z"/>
<path d="M3935 540 c3 -5 8 -10 11 -10 2 0 4 5 4 10 0 6 -5 10 -11 10 -5 0 -7
-4 -4 -10z"/>
<path d="M1855 531 c-3 -5 -2 -12 3 -15 5 -3 9 1 9 9 0 17 -3 19 -12 6z"/>
<path d="M1885 520 c-3 -6 1 -7 9 -4 18 7 21 14 7 14 -6 0 -13 -4 -16 -10z"/>
<path d="M1910 501 c0 -6 5 -13 12 -17 6 -4 8 -3 4 4 -3 5 0 13 6 15 8 3 6 6
-4 6 -10 1 -18 -3 -18 -8z"/>
<path d="M1964 499 c-4 -7 -3 -9 4 -5 5 3 13 0 15 -6 4 -9 6 -10 6 -1 1 17
-16 25 -25 12z"/>
<path d="M3772 505 c4 -4 0 -14 -10 -21 -9 -7 -12 -14 -6 -14 6 0 17 6 23 14
9 11 9 16 -1 22 -7 4 -10 4 -6 -1z"/>
<path d="M3866 499 c4 -8 30 -6 38 2 3 3 -5 5 -19 5 -13 0 -22 -3 -19 -7z"/>
<path d="M1876 487 c3 -10 9 -15 12 -12 3 3 0 11 -7 18 -10 9 -11 8 -5 -6z"/>
<path d="M2005 480 c2 -4 16 -7 30 -7 32 0 25 9 -10 12 -14 2 -23 0 -20 -5z"/>
<path d="M1986 462 c-3 -4 4 -9 15 -9 23 -2 25 3 4 10 -8 4 -16 3 -19 -1z"/>
<path d="M3790 465 c0 -7 30 -13 34 -7 3 4 -4 9 -15 9 -10 1 -19 0 -19 -2z"/>
<path d="M2095 439 c-11 -16 -1 -19 13 -3 7 8 8 14 3 14 -5 0 -13 -5 -16 -11z"/>
<path d="M3690 441 c0 -4 13 -7 30 -7 16 0 28 2 25 4 -8 9 -55 11 -55 3z"/>
<path d="M1999 413 c-13 -16 -12 -17 4 -4 16 13 21 21 13 21 -2 0 -10 -8 -17
-17z"/>
<path d="M2053 415 c0 -8 4 -12 9 -9 5 3 6 10 3 15 -9 13 -12 11 -12 -6z"/>
<path d="M3630 420 c0 -5 8 -6 18 -3 15 6 16 5 2 -13 -14 -18 -14 -18 2 -5 10
7 15 17 12 22 -7 12 -34 11 -34 -1z"/>
<path d="M1955 411 c-3 -5 -2 -12 3 -15 5 -3 9 1 9 9 0 17 -3 19 -12 6z"/>
<path d="M2141 411 c-9 -6 -10 -11 -2 -15 6 -4 11 -2 11 3 0 6 7 11 16 11 8 0
12 -4 9 -10 -3 -5 -1 -10 5 -10 16 0 6 24 -11 27 -8 2 -20 -1 -28 -6z"/>
<path d="M3610 411 c0 -6 4 -13 10 -16 6 -3 7 1 4 9 -7 18 -14 21 -14 7z"/>
<path d="M2230 390 c-14 -11 -20 -20 -14 -20 6 0 19 9 29 20 23 25 17 25 -15
0z"/>
<path d="M2016 387 c3 -10 9 -15 12 -12 3 3 0 11 -7 18 -10 9 -11 8 -5 -6z"/>
<path d="M2094 388 c-4 -7 -3 -8 5 -4 6 4 20 2 29 -6 15 -12 16 -11 3 5 -16
20 -27 22 -37 5z"/>
<path d="M3500 380 c0 -5 5 -10 11 -10 5 0 7 5 4 10 -3 6 -8 10 -11 10 -2 0
-4 -4 -4 -10z"/>
<path d="M3590 379 c0 -5 5 -7 10 -4 6 3 10 8 10 11 0 2 -4 4 -10 4 -5 0 -10
-5 -10 -11z"/>
<path d="M3670 379 c0 -5 5 -7 10 -4 6 3 10 8 10 11 0 2 -4 4 -10 4 -5 0 -10
-5 -10 -11z"/>
<path d="M3736 378 c3 -5 10 -6 15 -3 13 9 11 12 -6 12 -8 0 -12 -4 -9 -9z"/>
<path d="M2186 365 c-9 -26 -7 -32 5 -12 6 10 9 21 6 23 -2 3 -7 -2 -11 -11z"/>
<path d="M3609 363 c-13 -16 -12 -17 4 -4 16 13 21 21 13 21 -2 0 -10 -8 -17
-17z"/>
<path d="M3473 355 c0 -8 4 -12 9 -9 4 3 8 9 8 15 0 5 -4 9 -8 9 -5 0 -9 -7
-9 -15z"/>
<path d="M3555 360 c3 -5 8 -10 11 -10 2 0 4 5 4 10 0 6 -5 10 -11 10 -5 0 -7
-4 -4 -10z"/>
<path d="M2292 352 c2 -8 7 -13 12 -12 5 1 13 -4 18 -12 8 -11 9 -11 6 0 -2 8
-7 13 -12 12 -5 -1 -13 4 -18 12 -8 11 -9 11 -6 0z"/>
<path d="M3536 347 c3 -10 9 -15 12 -12 3 3 0 11 -7 18 -10 9 -11 8 -5 -6z"/>
<path d="M2270 343 c0 -5 10 -18 23 -29 l22 -19 -20 25 c-11 14 -21 27 -22 29
-2 2 -3 0 -3 -6z"/>
<path d="M2430 345 c0 -15 18 -40 24 -34 3 3 -1 14 -9 25 -8 10 -14 15 -15 9z"/>
<path d="M3510 329 c0 -5 5 -7 10 -4 6 3 10 8 10 11 0 2 -4 4 -10 4 -5 0 -10
-5 -10 -11z"/>
<path d="M2205 319 c-3 -4 2 -6 10 -5 21 3 28 13 10 13 -9 0 -18 -4 -20 -8z"/>
<path d="M2341 314 c0 -11 3 -14 6 -6 3 7 2 16 -1 19 -3 4 -6 -2 -5 -13z"/>
<path d="M3639 313 c-13 -16 -12 -17 4 -4 9 7 17 15 17 17 0 8 -8 3 -21 -13z"/>
<path d="M2390 300 c0 -6 7 -10 15 -10 8 0 15 2 15 4 0 2 -7 6 -15 10 -8 3
-15 1 -15 -4z"/>
<path d="M3396 302 c-3 -5 1 -9 9 -9 8 0 12 4 9 9 -3 4 -7 8 -9 8 -2 0 -6 -4
-9 -8z"/>
<path d="M3573 303 c4 -3 1 -13 -6 -22 -11 -14 -10 -14 5 -2 16 12 16 31 1 31
-4 0 -3 -3 0 -7z"/>
<path d="M2605 290 c-4 -6 -4 -14 -1 -17 3 -4 6 -1 6 6 0 8 5 7 16 -4 12 -12
19 -13 30 -4 8 6 14 17 14 23 0 6 -6 3 -14 -6 -11 -16 -14 -16 -28 -2 -11 12
-18 13 -23 4z"/>
<path d="M2239 273 c-13 -16 -12 -17 4 -4 16 13 21 21 13 21 -2 0 -10 -8 -17
-17z"/>
<path d="M2340 286 c0 -2 8 -10 18 -17 15 -13 16 -12 3 4 -13 16 -21 21 -21
13z"/>
<path d="M2500 281 c0 -4 11 -7 25 -7 14 0 25 3 25 7 0 3 -11 7 -25 7 -14 0
-25 -4 -25 -7z"/>
<path d="M3296 273 c-6 -14 -5 -15 5 -6 7 7 10 15 7 18 -3 3 -9 -2 -12 -12z"/>
<path d="M3347 279 c7 -7 15 -10 18 -7 3 3 -2 9 -12 12 -14 6 -15 5 -6 -5z"/>
<path d="M2925 270 c-4 -6 -10 -8 -15 -5 -4 3 -6 -4 -3 -15 3 -11 9 -20 14
-20 5 0 5 7 2 17 -4 10 -2 14 5 9 6 -3 13 -2 16 3 4 5 2 12 -3 15 -5 4 -12 2
-16 -4z"/>
<path d="M3030 267 c0 -6 3 -7 7 -4 3 4 12 2 19 -4 8 -7 14 -7 19 1 3 6 12 7
18 3 7 -4 18 -8 26 -10 10 -1 11 1 2 10 -14 14 -91 18 -91 4z"/>
<path d="M2430 256 c7 -7 13 -7 20 0 6 6 3 10 -10 10 -13 0 -16 -4 -10 -10z"/>
<path d="M2834 242 c1 -16 6 -29 12 -29 9 0 9 8 2 29 -13 35 -15 35 -14 0z"/>
<path d="M2546 244 c-5 -14 -4 -15 9 -4 17 14 19 20 6 20 -5 0 -12 -7 -15 -16z"/>
<path d="M2614 245 c1 -8 6 -18 11 -22 4 -4 5 -3 2 4 -4 6 -2 13 5 15 8 3 6 6
-4 10 -10 4 -15 2 -14 -7z"/>
<path d="M2470 239 c0 -5 5 -7 10 -4 6 3 10 8 10 11 0 2 -4 4 -10 4 -5 0 -10
-5 -10 -11z"/>
<path d="M2653 235 c0 -8 4 -12 9 -9 5 3 6 10 3 15 -9 13 -12 11 -12 -6z"/>
<path d="M2800 246 c0 -2 7 -7 16 -10 8 -3 12 -2 9 4 -6 10 -25 14 -25 6z"/>
<path d="M3399 233 c-13 -16 -12 -17 4 -4 16 13 21 21 13 21 -2 0 -10 -8 -17
-17z"/>
<path d="M3060 226 c0 -2 8 -10 18 -17 15 -13 16 -12 3 4 -13 16 -21 21 -21
13z"/>
<path d="M3250 219 c0 -5 5 -7 10 -4 6 3 10 8 10 11 0 2 -4 4 -10 4 -5 0 -10
-5 -10 -11z"/>
<path d="M3335 220 c-3 -5 -1 -10 4 -10 6 0 11 5 11 10 0 6 -2 10 -4 10 -3 0
-8 -4 -11 -10z"/>
<path d="M2979 218 c-5 -9 -5 -48 -1 -43 6 6 11 45 5 45 -2 0 -4 -1 -4 -2z"/>
<path d="M3147 199 c7 -7 15 -10 18 -7 3 3 -2 9 -12 12 -14 6 -15 5 -6 -5z"/>
<path d="M2893 185 c0 -8 4 -12 9 -9 5 3 6 10 3 15 -9 13 -12 11 -12 -6z"/>
<path d="M3013 185 c0 -8 4 -12 9 -9 5 3 6 10 3 15 -9 13 -12 11 -12 -6z"/>
<path d="M2605 180 c-3 -6 1 -7 9 -4 18 7 21 14 7 14 -6 0 -13 -4 -16 -10z"/>
<path d="M2935 180 c3 -5 8 -10 11 -10 2 0 4 5 4 10 0 6 -5 10 -11 10 -5 0 -7
-4 -4 -10z"/>
<path d="M3090 186 c0 -2 7 -7 16 -10 8 -3 12 -2 9 4 -6 10 -25 14 -25 6z"/>
</g>
</svg>
